<mxfile host="app.diagrams.net" modified="2024-02-04T17:06:04.849Z" agent="Mozilla/5.0 (Windows NT 10.0; Win64; x64) AppleWebKit/537.36 (KHTML, like Gecko) Chrome/121.0.0.0 Safari/537.36 Edg/121.0.0.0" version="23.1.1" etag="F2TjQNlBl6aC2GaMsrzX" type="github">
  <diagram name="Page-1" id="rKN-PsRv17kktfmjnvRl">
    <mxGraphModel>
      <root>
        <mxCell id="0" />
        <mxCell id="1" parent="0" />
      </root>
    </mxGraphModel>
  </diagram>
</mxfile>
